HIERARCHY
ROOT Hips
{
	OFFSET 0.000000 71.427986 0.000000
	CHANNELS 6 Xposition Yposition Zposition Xrotation Yrotation Zrotation
	JOINT Pelvis
	{
		OFFSET 0.000000 0.000000 0.000000
		CHANNELS 3 Xrotation Yrotation Zrotation
		JOINT LeftUpLeg
		{
			OFFSET 6.797100 -2.508499 -1.318700
			CHANNELS 3 Xrotation Yrotation Zrotation
			JOINT LeftLeg
			{
				OFFSET 0.069008 -29.241863 0.690200
				CHANNELS 3 Xrotation Yrotation Zrotation
				JOINT LeftFoot
				{
					OFFSET -0.069008 -29.568123 -0.266800
					CHANNELS 3 Xrotation Yrotation Zrotation
					JOINT LeftToeBase
					{
						OFFSET 3.145500 -8.631000 16.059900
						CHANNELS 3 Xrotation Yrotation Zrotation
						End Site
						{
							OFFSET 0.000000 18.501587 0.000000
						}
					}
				}
			}
			JOINT Left_ShortSleeve
			{
				OFFSET 0.265923 -10.480953 1.153800
				CHANNELS 3 Xrotation Yrotation Zrotation
				End Site
				{
					OFFSET 1.725763 19.823879 0.000000
				}
			}
		}
		JOINT RightUpLeg
		{
			OFFSET -6.797100 -2.508499 -1.318700
			CHANNELS 3 Xrotation Yrotation Zrotation
			JOINT RightLeg
			{
				OFFSET -0.082453 -29.241932 0.688000
				CHANNELS 3 Xrotation Yrotation Zrotation
				JOINT RightFoot
				{
					OFFSET 0.082453 -29.568058 -0.264600
					CHANNELS 3 Xrotation Yrotation Zrotation
					JOINT RightToeBase
					{
						OFFSET -3.115300 -8.682800 16.113400
						CHANNELS 3 Xrotation Yrotation Zrotation
						End Site
						{
							OFFSET 0.000000 18.567114 0.000000
						}
					}
				}
			}
			JOINT Right_ShortSleeve
			{
				OFFSET -0.265923 -10.480953 1.153800
				CHANNELS 3 Xrotation Yrotation Zrotation
				End Site
				{
					OFFSET -1.725766 19.823910 0.000000
				}
			}
		}
	}
	JOINT Spine
	{
		OFFSET 0.000000 13.368103 0.470500
		CHANNELS 3 Xrotation Yrotation Zrotation
		JOINT Spine1
		{
			OFFSET 0.147000 13.837402 0.538800
			CHANNELS 3 Xrotation Yrotation Zrotation
			JOINT Spine2
			{
				OFFSET 0.168000 16.242897 -1.435500
				CHANNELS 3 Xrotation Yrotation Zrotation
				JOINT Neck
				{
					OFFSET 0.217200 18.631500 -1.679100
					CHANNELS 3 Xrotation Yrotation Zrotation
					JOINT Head
					{
						OFFSET 0.000000 6.599396 1.385900
						CHANNELS 3 Xrotation Yrotation Zrotation
						JOINT Hat
						{
							OFFSET -0.532200 27.220596 -10.096100
							CHANNELS 3 Xrotation Yrotation Zrotation
							End Site
							{
								OFFSET 0.000000 22.029861 0.000000
							}
						}
						JOINT HairD
						{
							OFFSET -10.777400 17.437393 -1.325900
							CHANNELS 3 Xrotation Yrotation Zrotation
							JOINT HairD1
							{
								OFFSET -3.290299 -11.051193 1.062200
								CHANNELS 3 Xrotation Yrotation Zrotation
								End Site
								{
									OFFSET 0.000000 11.579437 0.000000
								}
							}
						}
						JOINT HairB
						{
							OFFSET -10.777400 17.437393 1.467900
							CHANNELS 3 Xrotation Yrotation Zrotation
							JOINT HairB1
							{
								OFFSET -1.561200 -12.956299 3.590200
								CHANNELS 3 Xrotation Yrotation Zrotation
								End Site
								{
									OFFSET 0.000000 13.534866 0.000000
								}
							}
						}
						JOINT HairA
						{
							OFFSET 9.713100 17.437393 1.467900
							CHANNELS 3 Xrotation Yrotation Zrotation
							JOINT HairA1
							{
								OFFSET 1.561200 -12.956299 3.590200
								CHANNELS 3 Xrotation Yrotation Zrotation
								End Site
								{
									OFFSET 0.000000 13.534866 0.000000
								}
							}
						}
						JOINT HairC
						{
							OFFSET 9.713100 17.437393 -1.325900
							CHANNELS 3 Xrotation Yrotation Zrotation
							JOINT HairC1
							{
								OFFSET 3.290300 -11.051193 1.062200
								CHANNELS 3 Xrotation Yrotation Zrotation
								End Site
								{
									OFFSET 0.000000 11.579437 0.000000
								}
							}
						}
					}
				}
				JOINT LeftShoulder
				{
					OFFSET 5.101800 15.108002 -2.763700
					CHANNELS 3 Xrotation Yrotation Zrotation
					JOINT LeftArm
					{
						OFFSET 9.825497 2.506317 -1.597400
						CHANNELS 3 Xrotation Yrotation Zrotation
						JOINT LeftForeArm
						{
							OFFSET 21.966244 0.000000 0.000000
							CHANNELS 3 Xrotation Yrotation Zrotation
							JOINT LeftHand
							{
								OFFSET 33.879036 0.000000 0.000000
								CHANNELS 3 Xrotation Yrotation Zrotation
								JOINT LeftHandThumb1
								{
									OFFSET 6.715286 -2.359680 3.363841
									CHANNELS 3 Xrotation Yrotation Zrotation
									JOINT LeftHandThumb2
									{
										OFFSET 2.507072 -1.447464 1.447461
										CHANNELS 3 Xrotation Yrotation Zrotation
										JOINT LeftHandThumb3
										{
											OFFSET 2.898338 -1.673355 1.673357
											CHANNELS 3 Xrotation Yrotation Zrotation
											End Site
											{
												OFFSET -0.295959 3.727692 -0.131651
											}
										}
									}
								}
								JOINT LeftHandIndex1
								{
									OFFSET 14.190811 -0.254547 3.840278
									CHANNELS 3 Xrotation Yrotation Zrotation
									JOINT LeftHandIndex2
									{
										OFFSET 3.551727 0.000000 -0.000000
										CHANNELS 3 Xrotation Yrotation Zrotation
										JOINT LeftHandIndex3
										{
											OFFSET 2.894196 0.000000 0.000000
											CHANNELS 3 Xrotation Yrotation Zrotation
											End Site
											{
												OFFSET -1.000603 2.690872 0.366626
											}
										}
									}
								}
								JOINT LeftHandMiddle1
								{
									OFFSET 13.776489 0.000000 0.000000
									CHANNELS 3 Xrotation Yrotation Zrotation
									JOINT LeftHandMiddle2
									{
										OFFSET 3.438232 0.000000 0.000000
										CHANNELS 3 Xrotation Yrotation Zrotation
										JOINT LeftHandMiddle3
										{
											OFFSET 3.691551 0.000000 0.000000
											CHANNELS 3 Xrotation Yrotation Zrotation
											End Site
											{
												OFFSET -1.082298 3.499527 0.457670
											}
										}
									}
								}
								JOINT LeftHandRing1
								{
									OFFSET 13.966164 -0.268127 -3.067488
									CHANNELS 3 Xrotation Yrotation Zrotation
									JOINT LeftHandRing2
									{
										OFFSET 3.162567 0.000000 0.000000
										CHANNELS 3 Xrotation Yrotation Zrotation
										JOINT LeftHandRing3
										{
											OFFSET 3.324348 0.000000 0.000000
											CHANNELS 3 Xrotation Yrotation Zrotation
											End Site
											{
												OFFSET -0.861900 3.184998 0.405154
											}
										}
									}
								}
								JOINT LeftHandPinky1
								{
									OFFSET 13.131393 -0.168503 -5.746925
									CHANNELS 3 Xrotation Yrotation Zrotation
									JOINT LeftHandPinky2
									{
										OFFSET 2.849182 0.000000 0.000000
										CHANNELS 3 Xrotation Yrotation Zrotation
										JOINT LeftHandPinky3
										{
											OFFSET 2.805038 0.000000 0.000000
											CHANNELS 3 Xrotation Yrotation Zrotation
											End Site
											{
												OFFSET -0.882500 2.642609 0.325652
											}
										}
									}
								}
							}
							JOINT Left_Sleeve
							{
								OFFSET 6.592125 -0.646545 0.805568
								CHANNELS 3 Xrotation Yrotation Zrotation
								End Site
								{
									OFFSET -0.000179 20.275787 -0.000000
								}
							}
						}
					}
				}
				JOINT RightShoulder
				{
					OFFSET -5.731700 15.108002 -2.763700
					CHANNELS 3 Xrotation Yrotation Zrotation
					JOINT RightArm
					{
						OFFSET -9.825497 2.506317 -1.597400
						CHANNELS 3 Xrotation Yrotation Zrotation
						JOINT RightForeArm
						{
							OFFSET -21.966242 0.000000 0.000000
							CHANNELS 3 Xrotation Yrotation Zrotation
							JOINT RightHand
							{
								OFFSET -33.879032 0.000000 0.000000
								CHANNELS 3 Xrotation Yrotation Zrotation
								JOINT RightHandThumb1
								{
									OFFSET -6.715286 -2.359680 3.363841
									CHANNELS 3 Xrotation Yrotation Zrotation
									JOINT RightHandThumb2
									{
										OFFSET -2.507072 -1.447464 1.447461
										CHANNELS 3 Xrotation Yrotation Zrotation
										JOINT RightHandThumb3
										{
											OFFSET -2.898338 -1.673355 1.673357
											CHANNELS 3 Xrotation Yrotation Zrotation
											End Site
											{
												OFFSET 0.295959 3.727692 -0.131651
											}
										}
									}
								}
								JOINT RightHandIndex1
								{
									OFFSET -14.190811 -0.254547 3.840278
									CHANNELS 3 Xrotation Yrotation Zrotation
									JOINT RightHandIndex2
									{
										OFFSET -3.551727 0.000000 -0.000000
										CHANNELS 3 Xrotation Yrotation Zrotation
										JOINT RightHandIndex3
										{
											OFFSET -2.894196 0.000000 0.000000
											CHANNELS 3 Xrotation Yrotation Zrotation
											End Site
											{
												OFFSET 1.000603 2.690872 0.366626
											}
										}
									}
								}
								JOINT RightHandMiddle1
								{
									OFFSET -13.776489 0.000000 0.000000
									CHANNELS 3 Xrotation Yrotation Zrotation
									JOINT RightHandMiddle2
									{
										OFFSET -3.438232 0.000000 0.000000
										CHANNELS 3 Xrotation Yrotation Zrotation
										JOINT RightHandMiddle3
										{
											OFFSET -3.691551 0.000000 0.000000
											CHANNELS 3 Xrotation Yrotation Zrotation
											End Site
											{
												OFFSET 1.082298 3.499527 0.457670
											}
										}
									}
								}
								JOINT RightHandRing1
								{
									OFFSET -13.966164 -0.268127 -3.067488
									CHANNELS 3 Xrotation Yrotation Zrotation
									JOINT RightHandRing2
									{
										OFFSET -3.162567 0.000000 0.000000
										CHANNELS 3 Xrotation Yrotation Zrotation
										JOINT RightHandRing3
										{
											OFFSET -3.324348 0.000000 0.000000
											CHANNELS 3 Xrotation Yrotation Zrotation
											End Site
											{
												OFFSET 0.861900 3.184998 0.405154
											}
										}
									}
								}
								JOINT RightHandPinky1
								{
									OFFSET -13.131393 -0.168503 -5.746925
									CHANNELS 3 Xrotation Yrotation Zrotation
									JOINT RightHandPinky2
									{
										OFFSET -2.849182 0.000000 0.000000
										CHANNELS 3 Xrotation Yrotation Zrotation
										JOINT RightHandPinky3
										{
											OFFSET -2.805038 0.000000 0.000000
											CHANNELS 3 Xrotation Yrotation Zrotation
											End Site
											{
												OFFSET 0.882500 2.642609 0.325652
											}
										}
									}
								}
							}
							JOINT Right_Sleeve
							{
								OFFSET -6.592125 -0.646545 0.805568
								CHANNELS 3 Xrotation Yrotation Zrotation
								End Site
								{
									OFFSET 0.000179 20.275787 -0.000000
								}
							}
						}
					}
				}
				JOINT Bind_Right_JacketString
				{
					OFFSET -3.534800 11.969597 7.200700
					CHANNELS 3 Xrotation Yrotation Zrotation
					JOINT Bind_Right_JacketString1
					{
						OFFSET -0.319900 -6.102600 2.794100
						CHANNELS 3 Xrotation Yrotation Zrotation
						End Site
						{
							OFFSET 0.000000 6.719452 0.000000
						}
					}
				}
				JOINT Bind_Left_JacketString
				{
					OFFSET 2.904800 11.969597 7.200700
					CHANNELS 3 Xrotation Yrotation Zrotation
					JOINT Bind_Left_JacketString1
					{
						OFFSET 0.364800 -5.904503 3.186800
						CHANNELS 3 Xrotation Yrotation Zrotation
						End Site
						{
							OFFSET 0.000000 6.719513 0.000000
						}
					}
				}
				JOINT HairE
				{
					OFFSET 5.915200 17.612701 -11.592200
					CHANNELS 3 Xrotation Yrotation Zrotation
					JOINT HairE1
					{
						OFFSET 0.289200 -7.171898 -1.284500
						CHANNELS 3 Xrotation Yrotation Zrotation
						End Site
						{
							OFFSET 0.000000 7.291756 0.000000
						}
					}
				}
				JOINT HairF
				{
					OFFSET -0.864800 17.612701 -11.592200
					CHANNELS 3 Xrotation Yrotation Zrotation
					JOINT HairF1
					{
						OFFSET 0.000000 -14.087097 -2.127501
						CHANNELS 3 Xrotation Yrotation Zrotation
						End Site
						{
							OFFSET 0.000000 14.246841 0.000000
						}
					}
				}
				JOINT HairG
				{
					OFFSET -8.087700 17.612701 -11.592200
					CHANNELS 3 Xrotation Yrotation Zrotation
					JOINT HairG1
					{
						OFFSET -0.293600 -6.081398 -0.910100
						CHANNELS 3 Xrotation Yrotation Zrotation
						End Site
						{
							OFFSET 0.000000 6.156120 0.000000
						}
					}
				}
			}
		}
	}
	JOINT Pouch
	{
		OFFSET 0.000000 4.394501 10.847300
		CHANNELS 3 Xrotation Yrotation Zrotation
		End Site
		{
			OFFSET 0.000000 21.880577 0.000000
		}
	}
	JOINT Bag
	{
		OFFSET -13.229000 4.813004 -0.593300
		CHANNELS 3 Xrotation Yrotation Zrotation
		End Site
		{
			OFFSET 0.000000 21.880577 0.000000
		}
	}
	JOINT OccupyGuyFacialAnim_Joint
	{
		OFFSET 1.000000 -70.206398 -1.655000
		CHANNELS 3 Xrotation Yrotation Zrotation
		End Site
		{
			OFFSET 0.000000 21.880577 0.000000
		}
	}
}
MOTION
Frames: 4
Frame Time: 0.016667
-2.447300 68.776421 8.039124 170.202700 -60.463888 167.484052 0.000000 0.000001 0.000000 -6.012067 11.601905 16.263068 21.606725 22.680142 2.166735 -9.790385 6.725015 -21.956191 0.000000 0.000000 -0.000000 -0.000000 -0.000003 0.000000 -24.686921 -19.903426 -12.213972 20.538285 -18.022125 1.674777 -1.417285 0.228603 6.599212 0.000000 -0.000002 -0.000000 0.000003 -0.000002 -0.000001 10.601924 -1.106059 -0.351124 -2.398483 -2.056336 2.718426 -2.356984 -1.768275 2.869755 -3.888776 19.882599 3.910876 -0.526664 21.441454 -3.837596 -0.000000 -0.000000 0.000000 -0.000000 -0.000000 0.000000 -0.000000 -0.000000 0.000000 -0.000000 -0.000000 0.000000 -0.000000 -0.000000 0.000000 -0.000000 -0.000000 0.000000 -0.000000 -0.000000 0.000000 -0.000000 -0.000000 0.000000 -0.000000 -0.000000 0.000000 0.705976 3.275494 -11.637334 -4.210788 -8.950355 -59.610578 5.910689 -15.225803 -6.974029 -0.347262 0.742999 15.812392 -4.200367 10.157376 11.960014 6.085776 10.556460 -0.157860 0.000001 0.000002 0.000002 2.131781 -0.392587 -13.293941 -0.004691 0.197232 -18.934980 -0.000002 0.000000 0.000002 -1.008603 1.345610 -17.617325 0.069219 0.461237 -24.715291 0.000004 0.000002 -0.000001 -2.701874 4.172403 -17.242671 -0.035252 0.237674 -29.248601 -0.000001 0.000001 0.000001 -4.558670 4.536656 -26.611578 0.028884 0.178537 -30.761051 -0.000002 -0.000001 0.000001 0.000003 0.000001 0.000000 0.703469 1.524162 16.490406 17.133159 25.354815 44.976246 15.517510 24.279243 -5.951841 -24.526024 1.149805 -17.348518 -0.473553 -9.226571 -6.063032 7.388325 -11.608393 1.218087 0.000001 -0.000001 -0.000002 2.309451 -3.333400 8.546104 0.013958 -0.262602 18.590059 -0.000001 0.000001 0.000000 -1.980207 -5.331755 13.722407 0.108078 -0.649730 26.760649 0.000001 0.000001 0.000001 -4.943422 -9.642923 11.063719 -0.035465 -0.347578 32.710937 -0.000000 -0.000001 -0.000002 -6.499149 -10.799777 23.445973 0.059683 -0.257527 34.143289 -0.000000 0.000001 -0.000001 0.000000 0.000001 0.000001 -0.000000 -0.000001 -0.000000 0.000000 -0.000002 0.000000 -0.000000 -0.000001 -0.000000 -0.000000 -0.000001 -0.000000 -0.000000 -0.000001 -0.000000 0.000000 -0.000002 0.000000 -0.000000 -0.000001 -0.000000 -0.000000 -0.000001 -0.000000 -0.000000 -0.000001 -0.000000 0.000000 -0.000002 0.000000 0.000000 0.000001 0.000000 0.000000 0.000001 0.000000 0.000000 0.000001 0.000000 
-2.341082 68.692902 6.939588 170.533090 -58.686809 167.904314 0.000000 0.000000 -0.000000 -6.176577 11.072810 17.145793 23.185079 24.276543 2.315388 -8.088827 6.918247 -24.140462 0.000000 0.000000 -0.000000 -0.000000 0.000000 -0.000001 -26.191911 -23.414802 -11.935995 21.955218 -13.956360 0.978035 -2.280620 1.093089 5.601304 0.000000 -0.000002 -0.000000 -0.000000 -0.000001 -0.000001 10.496034 -1.204373 -0.381878 -2.304557 -2.290393 3.051408 -2.253758 -1.967687 3.217099 -4.003681 18.093304 2.764203 -1.209540 19.088005 -2.532615 0.000000 -0.000000 -0.000000 0.000000 -0.000000 -0.000000 0.000000 -0.000000 -0.000000 0.000000 -0.000000 -0.000000 0.000000 -0.000000 -0.000000 0.000000 -0.000000 -0.000000 0.000000 -0.000000 -0.000000 0.000000 -0.000000 -0.000000 0.000000 -0.000000 -0.000000 0.768061 3.463246 -12.577565 -3.044081 -9.903333 -59.428301 7.177361 -16.260075 -6.053563 -3.592286 1.052246 15.956463 -4.274189 10.467623 11.892676 5.838996 10.360599 0.041994 0.000005 -0.000001 0.000000 2.051721 -0.987326 -14.446086 -0.008071 0.184409 -19.251018 0.000000 0.000002 -0.000003 -0.876462 0.677749 -18.735062 0.063304 0.418322 -24.711913 -0.000000 0.000000 -0.000001 -2.394404 3.204068 -18.922880 -0.032565 0.215856 -29.133417 0.000000 0.000001 -0.000002 -4.267619 3.447781 -27.868208 0.025610 0.162046 -30.809829 -0.000002 0.000001 0.000001 0.000002 -0.000000 0.000001 0.701268 1.355152 15.823429 16.534498 25.640288 45.312715 15.474302 24.341845 -5.985849 -24.226855 1.766186 -17.288042 -0.475939 -9.284851 -6.057591 7.374040 -11.607333 1.199336 -0.000001 0.000000 0.000003 2.297454 -3.261839 8.600789 0.014285 -0.263316 18.582597 0.000000 -0.000000 -0.000002 -1.979947 -5.246757 13.763550 0.107336 -0.646764 26.717304 0.000000 0.000000 -0.000001 -4.937378 -9.523885 11.140126 -0.035762 -0.348100 32.646907 -0.000000 0.000001 -0.000003 -6.512576 -10.659435 23.476298 0.059901 -0.258266 34.082876 -0.000000 0.000000 -0.000001 -0.000000 0.000001 0.000001 0.000000 0.000000 0.000000 0.000000 0.000000 -0.000000 0.000000 0.000000 0.000000 0.000000 0.000000 0.000000 0.000000 0.000000 0.000000 0.000000 0.000000 -0.000000 0.000000 0.000000 0.000000 0.000000 0.000000 0.000000 0.000000 0.000000 0.000000 0.000000 0.000000 -0.000000 0.000000 0.000000 -0.000000 0.000000 0.000000 -0.000000 0.000000 0.000000 -0.000000 
-2.228902 68.612671 5.849224 170.996696 -57.024686 168.395172 -0.000000 0.000000 0.000000 -6.584430 10.954493 18.284427 25.131273 25.312505 2.431632 -6.202547 6.836434 -26.437668 0.000000 0.000001 -0.000000 -0.000000 0.000001 0.000001 -27.090096 -25.659815 -11.393242 23.355395 -10.996097 0.391577 -3.197945 1.736493 4.741694 0.000000 -0.000001 0.000000 -0.000003 -0.000001 -0.000001 10.598514 -1.312492 -0.258991 -2.282224 -2.483314 3.172531 -2.225452 -2.139750 3.353371 -4.312742 16.256591 2.263036 -1.323580 17.025314 -2.023881 0.000000 0.000000 0.000000 0.000000 0.000000 0.000000 0.000000 0.000000 0.000000 0.000000 0.000000 -0.000000 -0.000000 0.000000 -0.000000 0.000000 0.000000 -0.000000 -0.000000 0.000000 -0.000000 0.000000 0.000000 0.000000 0.000000 0.000000 0.000000 0.793941 3.860541 -12.834929 -2.590060 -10.725972 -59.685314 6.796630 -15.986968 -5.978532 -4.516857 0.869638 16.178124 -4.350502 10.787262 11.824441 5.585233 10.158481 0.246104 0.000002 0.000001 -0.000004 1.949228 -1.594977 -15.631610 -0.011641 0.171262 -19.576152 -0.000000 0.000001 -0.000002 -0.762999 -0.013256 -19.880401 0.057186 0.374160 -24.708057 0.000006 0.000002 0.000001 -2.128877 2.191422 -20.636080 -0.029279 0.193459 -29.015569 0.000001 -0.000000 -0.000001 -4.009856 2.316289 -29.144240 0.022203 0.145137 -30.860970 -0.000002 -0.000000 0.000003 0.000000 0.000001 -0.000000 0.708322 1.125618 15.555423 16.276312 26.099181 45.427643 15.667824 24.549496 -6.236646 -23.970020 2.169558 -17.977317 -0.478583 -9.343099 -6.052155 7.359751 -11.606346 1.180563 -0.000000 -0.000001 -0.000001 2.285636 -3.191678 8.655806 0.014431 -0.263765 18.575594 -0.000000 -0.000000 0.000000 -1.980057 -5.161932 13.801836 0.106595 -0.643604 26.672599 -0.000000 0.000000 0.000001 -4.933552 -9.403500 11.210514 -0.036025 -0.348467 32.579176 -0.000000 0.000001 -0.000000 -6.528589 -10.515623 23.497396 0.059945 -0.258742 34.016097 -0.000002 -0.000001 0.000000 0.000001 0.000001 -0.000000 0.000000 0.000001 -0.000001 0.000000 -0.000001 -0.000000 0.000000 0.000001 -0.000001 0.000000 0.000001 -0.000001 0.000000 0.000001 -0.000001 0.000000 -0.000001 0.000000 0.000000 0.000001 -0.000001 0.000000 0.000001 -0.000001 0.000000 0.000001 -0.000001 0.000000 -0.000001 0.000000 -0.000000 0.000000 0.000000 -0.000000 0.000000 0.000000 -0.000000 0.000000 0.000000 
-2.105190 68.537155 4.662870 171.977606 -55.208463 169.201162 -0.000000 -0.000000 0.000001 -6.668951 11.364152 19.689963 26.855136 26.092429 2.523741 -4.087457 6.451700 -28.749738 0.000001 0.000000 0.000000 -0.000000 0.000000 0.000002 -26.948894 -25.722820 -10.161661 24.763095 -9.570832 0.170716 -4.076743 1.875951 4.160780 -0.000000 0.000001 0.000000 0.000003 0.000001 0.000001 11.003224 -1.346371 0.372811 -2.311413 -2.458898 2.656137 -2.266520 -2.142663 2.841962 -4.723528 14.069388 3.187260 -1.044572 15.252407 -2.299040 -0.000000 -0.000000 -0.000000 -0.000000 -0.000000 -0.000000 -0.000000 -0.000000 -0.000000 -0.000000 -0.000000 -0.000000 -0.000000 -0.000000 -0.000000 -0.000000 -0.000000 -0.000000 -0.000000 -0.000000 -0.000000 -0.000000 -0.000000 -0.000000 -0.000000 -0.000000 -0.000000 0.698517 3.486598 -11.418150 -2.788111 -10.705269 -61.013588 6.324342 -14.736750 -5.900927 -4.856889 0.224937 16.321936 -4.428155 11.111365 11.756511 5.328295 9.953003 0.451382 0.000004 0.000001 -0.000001 1.824245 -2.206766 -16.833163 -0.015526 0.157995 -19.905608 0.000001 -0.000000 -0.000000 -0.671707 -0.717639 -21.035740 0.051055 0.329372 -24.704142 -0.000002 0.000000 0.000001 -1.913178 1.149651 -22.356136 -0.025958 0.170689 -28.896652 0.000004 -0.000001 0.000002 -3.792518 1.158815 -30.419723 0.018543 0.127890 -30.913525 -0.000000 -0.000001 0.000003 0.000000 0.000000 -0.000000 0.748267 0.713202 16.348355 16.070858 26.382588 45.353542 15.509625 24.754760 -6.377420 -23.526470 2.543107 -18.509819 -0.481025 -9.401249 -6.046678 7.345461 -11.605479 1.161671 -0.000001 0.000001 -0.000001 2.274407 -3.123230 8.711371 0.014466 -0.263976 18.568825 0.000000 0.000001 0.000000 -1.980344 -5.077274 13.837583 0.105877 -0.640494 26.625884 0.000001 0.000000 -0.000001 -4.930944 -9.281436 11.275147 -0.036163 -0.348592 32.507462 0.000002 -0.000000 -0.000001 -6.546908 -10.368721 23.509614 0.059900 -0.258978 33.943332 -0.000004 -0.000000 -0.000001 0.000000 -0.000000 -0.000000 -0.000000 -0.000001 0.000000 -0.000000 -0.000001 0.000000 -0.000000 -0.000001 0.000000 -0.000000 -0.000001 0.000000 -0.000000 -0.000001 0.000000 -0.000000 -0.000001 0.000000 -0.000000 -0.000001 0.000000 -0.000000 -0.000001 0.000000 -0.000000 -0.000001 0.000000 -0.000000 -0.000001 0.000000 -0.000000 -0.000000 0.000001 -0.000000 -0.000000 0.000001 -0.000000 -0.000000 0.000001 
